<svg xmlns="http://www.w3.org/2000/svg" width="512" height="512" viewBox="0 0 512 512" version="1.1"><path d="M 272 232 L 272 256 288 256 L 304 256 304 248 L 304 240 296 240 L 288 240 288 224 L 288 208 280 208 L 272 208 272 232 M 176 232 L 176 240 184 240 L 192 240 192 248 L 192 256 200 256 L 208 256 208 248 L 208 240 200 240 L 192 240 192 232 L 192 224 184 224 L 176 224 176 232" stroke="none" fill="#936f58" fill-rule="evenodd"/><path d="M 208 200 L 208 208 216 208 L 224 208 224 200 L 224 192 216 192 L 208 192 208 200 M 304 200 L 304 208 312 208 L 320 208 320 200 L 320 192 312 192 L 304 192 304 200" stroke="none" fill="#ffffff" fill-rule="evenodd"/><path d="M 192 184 L 192 192 216 192 L 240 192 240 184 L 240 176 216 176 L 192 176 192 184 M 288 184 L 288 192 312 192 L 336 192 336 184 L 336 176 312 176 L 288 176 288 184" stroke="none" fill="#4c3023" fill-rule="evenodd"/><path d="M 272 232 L 272 256 288 256 L 304 256 304 248 L 304 240 296 240 L 288 240 288 224 L 288 208 280 208 L 272 208 272 232 M 176 232 L 176 240 184 240 L 192 240 192 248 L 192 256 200 256 L 208 256 208 248 L 208 240 200 240 L 192 240 192 232 L 192 224 184 224 L 176 224 176 232" stroke="none" fill="#936f58" fill-rule="evenodd"/><path d="M 256 232 L 256 256 264 256 L 272 256 272 232 L 272 208 264 208 L 256 208 256 232" stroke="none" fill="#573929" fill-rule="evenodd"/><path d="M 176 104 L 176 112 168 112 L 160 112 160 144 L 160 176 144 176 L 128 176 128 208 L 128 240 136 240 L 144 240 144 248 L 144 256 152 256 L 160 256 160 280 L 160 304 168 304 L 176 304 176 368 L 176 432 184 432 L 192 432 192 448 L 192 464 208 464 L 224 464 224 472 L 224 480 248 480 L 272 480 272 472 L 272 464 280 464 L 288 464 288 416 L 288 368 296 368 L 304 368 304 360 L 304 352 320 352 L 336 352 336 344 L 336 336 344 336 L 352 336 352 224 L 352 112 344 112 L 336 112 336 104 L 336 96 256 96 L 176 96 176 104 M 176 200 L 176 288 184 288 L 192 288 192 296 L 192 304 200 304 L 208 304 208 320 L 208 336 200 336 L 192 336 192 384 L 192 432 208 432 L 224 432 224 448 L 224 464 248 464 L 272 464 272 416 L 272 368 264 368 L 256 368 256 360 L 256 352 280 352 L 304 352 304 344 L 304 336 320 336 L 336 336 336 272 L 336 208 328 208 L 320 208 320 200 L 320 192 328 192 L 336 192 336 152 L 336 112 256 112 L 176 112 176 200 M 144 216 L 144 240 152 240 L 160 240 160 216 L 160 192 152 192 L 144 192 144 216 M 224 200 L 224 208 232 208 L 240 208 240 200 L 240 192 232 192 L 224 192 224 200 M 240 296 L 240 304 272 304 L 304 304 304 296 L 304 288 272 288 L 240 288 240 296 M 208 344 L 208 352 232 352 L 256 352 256 344 L 256 336 232 336 L 208 336 208 344" stroke="none" fill="#0b0907" fill-rule="evenodd"/><path d="M 176 168 L 176 224 184 224 L 192 224 192 232 L 192 240 184 240 L 176 240 176 264 L 176 288 184 288 L 192 288 192 296 L 192 304 200 304 L 208 304 208 320 L 208 336 200 336 L 192 336 192 384 L 192 432 208 432 L 224 432 224 448 L 224 464 248 464 L 272 464 272 416 L 272 368 264 368 L 256 368 256 360 L 256 352 280 352 L 304 352 304 344 L 304 336 320 336 L 336 336 336 272 L 336 208 320 208 L 304 208 304 200 L 304 192 296 192 L 288 192 288 184 L 288 176 312 176 L 336 176 336 144 L 336 112 256 112 L 176 112 176 168 M 192 184 L 192 192 200 192 L 208 192 208 200 L 208 208 224 208 L 240 208 240 192 L 240 176 216 176 L 192 176 192 184 M 144 216 L 144 240 152 240 L 160 240 160 216 L 160 192 152 192 L 144 192 144 216 M 256 232 L 256 256 280 256 L 304 256 304 248 L 304 240 296 240 L 288 240 288 224 L 288 208 272 208 L 256 208 256 232 M 192 248 L 192 256 200 256 L 208 256 208 248 L 208 240 200 240 L 192 240 192 248 M 240 296 L 240 304 272 304 L 304 304 304 296 L 304 288 272 288 L 240 288 240 296 M 208 344 L 208 352 232 352 L 256 352 256 344 L 256 336 232 336 L 208 336 208 344" stroke="none" fill="#c4a595" fill-rule="evenodd"/></svg>