<svg xmlns="http://www.w3.org/2000/svg" width="512" height="512" viewBox="0 0 512 512" version="1.1"><path d="M 192 416 L 192 432 208 432 L 224 432 224 440 L 224 448 248 448 L 272 448 272 440 L 272 432 248 432 L 224 432 224 424 L 224 416 216 416 L 208 416 208 408 L 208 400 200 400 L 192 400 192 416" stroke="none" fill="#e8dace" fill-rule="evenodd"/><path d="M 224 456 L 224 464 248 464 L 272 464 272 456 L 272 448 248 448 L 224 448 224 456" stroke="none" fill="#ad784c" fill-rule="evenodd"/><path d="M 192 416 L 192 432 208 432 L 224 432 224 440 L 224 448 248 448 L 272 448 272 440 L 272 432 248 432 L 224 432 224 424 L 224 416 216 416 L 208 416 208 408 L 208 400 200 400 L 192 400 192 416" stroke="none" fill="#e8dace" fill-rule="evenodd"/><path d="M 176 200 L 176 288 184 288 L 192 288 192 296 L 192 304 200 304 L 208 304 208 320 L 208 336 200 336 L 192 336 192 368 L 192 400 200 400 L 208 400 208 408 L 208 416 216 416 L 224 416 224 424 L 224 432 248 432 L 272 432 272 400 L 272 368 264 368 L 256 368 256 360 L 256 352 280 352 L 304 352 304 344 L 304 336 320 336 L 336 336 336 304 L 336 272 328 272 L 320 272 320 264 L 320 256 328 256 L 336 256 336 240 L 336 224 320 224 L 304 224 304 208 L 304 192 320 192 L 336 192 336 152 L 336 112 256 112 L 176 112 176 200 M 208 208 L 208 224 232 224 L 256 224 256 208 L 256 192 232 192 L 208 192 208 208 M 272 240 L 272 256 280 256 L 288 256 288 240 L 288 224 280 224 L 272 224 272 240 M 192 248 L 192 256 200 256 L 208 256 208 264 L 208 272 216 272 L 224 272 224 280 L 224 288 232 288 L 240 288 240 296 L 240 304 272 304 L 304 304 304 296 L 304 288 312 288 L 320 288 320 280 L 320 272 312 272 L 304 272 304 280 L 304 288 272 288 L 240 288 240 280 L 240 272 232 272 L 224 272 224 264 L 224 256 216 256 L 208 256 208 248 L 208 240 200 240 L 192 240 192 248 M 208 344 L 208 352 232 352 L 256 352 256 344 L 256 336 232 336 L 208 336 208 344" stroke="none" fill="#ffffff" fill-rule="evenodd"/><path d="" stroke="none" fill="#fbfafa" fill-rule="evenodd"/><path d="M 176 104 L 176 112 168 112 L 160 112 160 208 L 160 304 168 304 L 176 304 176 368 L 176 432 184 432 L 192 432 192 448 L 192 464 208 464 L 224 464 224 472 L 224 480 248 480 L 272 480 272 472 L 272 464 280 464 L 288 464 288 416 L 288 368 296 368 L 304 368 304 360 L 304 352 320 352 L 336 352 336 344 L 336 336 344 336 L 352 336 352 224 L 352 112 344 112 L 336 112 336 104 L 336 96 256 96 L 176 96 176 104 M 176 200 L 176 288 184 288 L 192 288 192 296 L 192 304 200 304 L 208 304 208 320 L 208 336 200 336 L 192 336 192 384 L 192 432 208 432 L 224 432 224 448 L 224 464 248 464 L 272 464 272 416 L 272 368 264 368 L 256 368 256 360 L 256 352 280 352 L 304 352 304 344 L 304 336 320 336 L 336 336 336 304 L 336 272 328 272 L 320 272 320 264 L 320 256 328 256 L 336 256 336 240 L 336 224 320 224 L 304 224 304 208 L 304 192 320 192 L 336 192 336 152 L 336 112 256 112 L 176 112 176 200 M 208 208 L 208 224 232 224 L 256 224 256 208 L 256 192 232 192 L 208 192 208 208 M 272 240 L 272 256 280 256 L 288 256 288 240 L 288 224 280 224 L 272 224 272 240 M 192 248 L 192 256 200 256 L 208 256 208 264 L 208 272 216 272 L 224 272 224 280 L 224 288 232 288 L 240 288 240 296 L 240 304 272 304 L 304 304 304 296 L 304 288 312 288 L 320 288 320 280 L 320 272 312 272 L 304 272 304 280 L 304 288 272 288 L 240 288 240 280 L 240 272 232 272 L 224 272 224 264 L 224 256 216 256 L 208 256 208 248 L 208 240 200 240 L 192 240 192 248 M 208 344 L 208 352 232 352 L 256 352 256 344 L 256 336 232 336 L 208 336 208 344" stroke="none" fill="#040404" fill-rule="evenodd"/></svg>