<svg xmlns="http://www.w3.org/2000/svg" width="512" height="512" viewBox="0 0 512 512" version="1.1"><path d="M 176 128 L 176 144 184 144 L 192 144 192 136 L 192 128 200 128 L 208 128 208 120 L 208 112 192 112 L 176 112 176 128 M 288 120 L 288 128 296 128 L 304 128 304 144 L 304 160 312 160 L 320 160 320 168 L 320 176 328 176 L 336 176 336 144 L 336 112 312 112 L 288 112 288 120 M 208 184 L 208 192 216 192 L 224 192 224 184 L 224 176 216 176 L 208 176 208 184 M 272 232 L 272 256 288 256 L 304 256 304 248 L 304 240 296 240 L 288 240 288 224 L 288 208 280 208 L 272 208 272 232 M 176 232 L 176 240 184 240 L 192 240 192 248 L 192 256 200 256 L 208 256 208 248 L 208 240 200 240 L 192 240 192 232 L 192 224 184 224 L 176 224 176 232 M 320 248 L 320 256 328 256 L 336 256 336 248 L 336 240 328 240 L 320 240 320 248 M 224 312 L 224 320 216 320 L 208 320 208 328 L 208 336 232 336 L 256 336 256 344 L 256 352 264 352 L 272 352 272 344 L 272 336 264 336 L 256 336 256 320 L 256 304 240 304 L 224 304 224 312 M 256 408 L 256 416 248 416 L 240 416 240 424 L 240 432 256 432 L 272 432 272 416 L 272 400 264 400 L 256 400 256 408" stroke="none" fill="#38703b" fill-rule="evenodd"/><path d="M 176 128 L 176 144 184 144 L 192 144 192 136 L 192 128 200 128 L 208 128 208 120 L 208 112 192 112 L 176 112 176 128 M 288 120 L 288 128 296 128 L 304 128 304 144 L 304 160 312 160 L 320 160 320 168 L 320 176 328 176 L 336 176 336 144 L 336 112 312 112 L 288 112 288 120 M 208 184 L 208 192 216 192 L 224 192 224 184 L 224 176 216 176 L 208 176 208 184 M 272 232 L 272 256 288 256 L 304 256 304 248 L 304 240 296 240 L 288 240 288 224 L 288 208 280 208 L 272 208 272 232 M 176 232 L 176 240 184 240 L 192 240 192 248 L 192 256 200 256 L 208 256 208 248 L 208 240 200 240 L 192 240 192 232 L 192 224 184 224 L 176 224 176 232 M 320 248 L 320 256 328 256 L 336 256 336 248 L 336 240 328 240 L 320 240 320 248 M 224 312 L 224 320 216 320 L 208 320 208 328 L 208 336 232 336 L 256 336 256 344 L 256 352 264 352 L 272 352 272 344 L 272 336 264 336 L 256 336 256 320 L 256 304 240 304 L 224 304 224 312 M 256 408 L 256 416 248 416 L 240 416 240 424 L 240 432 256 432 L 272 432 272 416 L 272 400 264 400 L 256 400 256 408" stroke="none" fill="#38703b" fill-rule="evenodd"/><path d="M 224 216 L 224 224 232 224 L 240 224 240 216 L 240 208 232 208 L 224 208 224 216 M 320 216 L 320 224 328 224 L 336 224 336 216 L 336 208 328 208 L 320 208 320 216" stroke="none" fill="#b33030" fill-rule="evenodd"/><path d="M 256 232 L 256 256 264 256 L 272 256 272 232 L 272 208 264 208 L 256 208 256 232" stroke="none" fill="#2b582d" fill-rule="evenodd"/><path d="M 176 128 L 176 144 184 144 L 192 144 192 136 L 192 128 200 128 L 208 128 208 120 L 208 112 192 112 L 176 112 176 128 M 288 120 L 288 128 296 128 L 304 128 304 144 L 304 160 312 160 L 320 160 320 168 L 320 176 328 176 L 336 176 336 144 L 336 112 312 112 L 288 112 288 120 M 208 184 L 208 192 216 192 L 224 192 224 184 L 224 176 216 176 L 208 176 208 184 M 272 232 L 272 256 288 256 L 304 256 304 248 L 304 240 296 240 L 288 240 288 224 L 288 208 280 208 L 272 208 272 232 M 176 232 L 176 240 184 240 L 192 240 192 248 L 192 256 200 256 L 208 256 208 248 L 208 240 200 240 L 192 240 192 232 L 192 224 184 224 L 176 224 176 232 M 320 248 L 320 256 328 256 L 336 256 336 248 L 336 240 328 240 L 320 240 320 248 M 224 312 L 224 320 216 320 L 208 320 208 328 L 208 336 232 336 L 256 336 256 344 L 256 352 264 352 L 272 352 272 344 L 272 336 264 336 L 256 336 256 320 L 256 304 240 304 L 224 304 224 312 M 256 408 L 256 416 248 416 L 240 416 240 424 L 240 432 256 432 L 272 432 272 416 L 272 400 264 400 L 256 400 256 408" stroke="none" fill="#38703b" fill-rule="evenodd"/><path d="M 176 104 L 176 112 168 112 L 160 112 160 144 L 160 176 144 176 L 128 176 128 208 L 128 240 136 240 L 144 240 144 248 L 144 256 152 256 L 160 256 160 280 L 160 304 168 304 L 176 304 176 368 L 176 432 184 432 L 192 432 192 448 L 192 464 208 464 L 224 464 224 472 L 224 480 248 480 L 272 480 272 472 L 272 464 280 464 L 288 464 288 416 L 288 368 296 368 L 304 368 304 360 L 304 352 320 352 L 336 352 336 344 L 336 336 344 336 L 352 336 352 224 L 352 112 344 112 L 336 112 336 104 L 336 96 256 96 L 176 96 176 104 M 176 200 L 176 288 184 288 L 192 288 192 296 L 192 304 200 304 L 208 304 208 320 L 208 336 200 336 L 192 336 192 384 L 192 432 208 432 L 224 432 224 448 L 224 464 248 464 L 272 464 272 416 L 272 368 264 368 L 256 368 256 360 L 256 352 280 352 L 304 352 304 344 L 304 336 320 336 L 336 336 336 272 L 336 208 328 208 L 320 208 320 216 L 320 224 312 224 L 304 224 304 208 L 304 192 320 192 L 336 192 336 152 L 336 112 256 112 L 176 112 176 200 M 144 216 L 144 240 152 240 L 160 240 160 216 L 160 192 152 192 L 144 192 144 216 M 208 208 L 208 224 216 224 L 224 224 224 216 L 224 208 232 208 L 240 208 240 200 L 240 192 224 192 L 208 192 208 208 M 240 296 L 240 304 272 304 L 304 304 304 296 L 304 288 272 288 L 240 288 240 296 M 208 344 L 208 352 232 352 L 256 352 256 344 L 256 336 232 336 L 208 336 208 344" stroke="none" fill="#040404" fill-rule="evenodd"/><path d="M 208 120 L 208 128 200 128 L 192 128 192 136 L 192 144 184 144 L 176 144 176 184 L 176 224 184 224 L 192 224 192 232 L 192 240 184 240 L 176 240 176 264 L 176 288 184 288 L 192 288 192 296 L 192 304 200 304 L 208 304 208 312 L 208 320 216 320 L 224 320 224 312 L 224 304 232 304 L 240 304 240 296 L 240 288 272 288 L 304 288 304 296 L 304 304 280 304 L 256 304 256 320 L 256 336 264 336 L 272 336 272 344 L 272 352 288 352 L 304 352 304 344 L 304 336 320 336 L 336 336 336 296 L 336 256 328 256 L 320 256 320 248 L 320 240 328 240 L 336 240 336 232 L 336 224 320 224 L 304 224 304 208 L 304 192 320 192 L 336 192 336 184 L 336 176 328 176 L 320 176 320 168 L 320 160 312 160 L 304 160 304 144 L 304 128 296 128 L 288 128 288 120 L 288 112 248 112 L 208 112 208 120 M 208 200 L 208 224 224 224 L 240 224 240 208 L 240 192 232 192 L 224 192 224 184 L 224 176 216 176 L 208 176 208 200 M 144 216 L 144 240 152 240 L 160 240 160 216 L 160 192 152 192 L 144 192 144 216 M 256 232 L 256 256 280 256 L 304 256 304 248 L 304 240 296 240 L 288 240 288 224 L 288 208 272 208 L 256 208 256 232 M 192 248 L 192 256 200 256 L 208 256 208 248 L 208 240 200 240 L 192 240 192 248 M 192 384 L 192 432 208 432 L 224 432 224 448 L 224 464 248 464 L 272 464 272 448 L 272 432 256 432 L 240 432 240 424 L 240 416 248 416 L 256 416 256 408 L 256 400 264 400 L 272 400 272 384 L 272 368 264 368 L 256 368 256 360 L 256 352 232 352 L 208 352 208 344 L 208 336 200 336 L 192 336 192 384" stroke="none" fill="#418042" fill-rule="evenodd"/></svg>