<svg xmlns="http://www.w3.org/2000/svg" width="512" height="512" viewBox="0 0 512 512" version="1.1"><path d="M 192 72 L 192 80 184 80 L 176 80 176 88 L 176 96 168 96 L 160 96 160 128 L 160 160 288 160 L 416 160 416 152 L 416 144 296 144 L 176 144 176 120 L 176 96 184 96 L 192 96 192 88 L 192 80 256 80 L 320 80 320 72 L 320 64 256 64 L 192 64 192 72" stroke="none" fill="#373839" fill-rule="evenodd"/><path d="M 192 88 L 192 96 184 96 L 176 96 176 120 L 176 144 296 144 L 416 144 416 136 L 416 128 384 128 L 352 128 352 112 L 352 96 344 96 L 336 96 336 88 L 336 80 264 80 L 192 80 192 88" stroke="none" fill="#3b3c3d" fill-rule="evenodd"/><path d="M 192 72 L 192 80 184 80 L 176 80 176 88 L 176 96 168 96 L 160 96 160 128 L 160 160 288 160 L 416 160 416 152 L 416 144 296 144 L 176 144 176 120 L 176 96 184 96 L 192 96 192 88 L 192 80 256 80 L 320 80 320 72 L 320 64 256 64 L 192 64 192 72" stroke="none" fill="#373839" fill-rule="evenodd"/><path d="M 192 72 L 192 80 184 80 L 176 80 176 88 L 176 96 168 96 L 160 96 160 128 L 160 160 288 160 L 416 160 416 152 L 416 144 296 144 L 176 144 176 120 L 176 96 184 96 L 192 96 192 88 L 192 80 256 80 L 320 80 320 72 L 320 64 256 64 L 192 64 192 72" stroke="none" fill="#373839" fill-rule="evenodd"/><path d="M 192 88 L 192 96 184 96 L 176 96 176 120 L 176 144 296 144 L 416 144 416 136 L 416 128 384 128 L 352 128 352 112 L 352 96 344 96 L 336 96 336 88 L 336 80 264 80 L 192 80 192 88" stroke="none" fill="#3b3c3d" fill-rule="evenodd"/><path d="M 192 72 L 192 80 184 80 L 176 80 176 88 L 176 96 168 96 L 160 96 160 128 L 160 160 288 160 L 416 160 416 152 L 416 144 296 144 L 176 144 176 120 L 176 96 184 96 L 192 96 192 88 L 192 80 256 80 L 320 80 320 72 L 320 64 256 64 L 192 64 192 72" stroke="none" fill="#373839" fill-rule="evenodd"/><path d="M 192 88 L 192 96 184 96 L 176 96 176 120 L 176 144 296 144 L 416 144 416 136 L 416 128 384 128 L 352 128 352 112 L 352 96 344 96 L 336 96 336 88 L 336 80 264 80 L 192 80 192 88" stroke="none" fill="#3b3c3d" fill-rule="evenodd"/><path d="M 192 88 L 192 96 184 96 L 176 96 176 120 L 176 144 296 144 L 416 144 416 136 L 416 128 384 128 L 352 128 352 112 L 352 96 344 96 L 336 96 336 88 L 336 80 264 80 L 192 80 192 88" stroke="none" fill="#3b3c3d" fill-rule="evenodd"/><path d="" stroke="none" fill="#343c3c" fill-rule="evenodd"/><path d="" stroke="none" fill="#3c3c3c" fill-rule="evenodd"/></svg>