<svg xmlns="http://www.w3.org/2000/svg" width="512" height="512" viewBox="0 0 512 512" version="1.1"><path d="M 208 56 L 208 64 200 64 L 192 64 192 72 L 192 80 184 80 L 176 80 176 88 L 176 96 168 96 L 160 96 160 112 L 160 128 144 128 L 128 128 128 120 L 128 112 120 112 L 112 112 112 104 L 112 96 104 96 L 96 96 96 88 L 96 80 80 80 L 64 80 64 96 L 64 112 72 112 L 80 112 80 120 L 80 128 88 128 L 96 128 96 136 L 96 144 104 144 L 112 144 112 152 L 112 160 248 160 L 384 160 384 152 L 384 144 400 144 L 416 144 416 136 L 416 128 424 128 L 432 128 432 120 L 432 112 440 112 L 448 112 448 96 L 448 80 432 80 L 416 80 416 88 L 416 96 408 96 L 400 96 400 104 L 400 112 392 112 L 384 112 384 120 L 384 128 368 128 L 352 128 352 112 L 352 96 344 96 L 336 96 336 88 L 336 80 328 80 L 320 80 320 72 L 320 64 312 64 L 304 64 304 56 L 304 48 256 48 L 208 48 208 56 M 208 72 L 208 80 200 80 L 192 80 192 88 L 192 96 184 96 L 176 96 176 112 L 176 128 168 128 L 160 128 160 136 L 160 144 256 144 L 352 144 352 136 L 352 128 344 128 L 336 128 336 112 L 336 96 328 96 L 320 96 320 88 L 320 80 312 80 L 304 80 304 72 L 304 64 256 64 L 208 64 208 72" stroke="none" fill="#3d2e24" fill-rule="evenodd"/><path d="M 208 56 L 208 64 200 64 L 192 64 192 72 L 192 80 184 80 L 176 80 176 88 L 176 96 168 96 L 160 96 160 112 L 160 128 144 128 L 128 128 128 120 L 128 112 120 112 L 112 112 112 104 L 112 96 104 96 L 96 96 96 88 L 96 80 80 80 L 64 80 64 96 L 64 112 72 112 L 80 112 80 120 L 80 128 88 128 L 96 128 96 136 L 96 144 104 144 L 112 144 112 152 L 112 160 248 160 L 384 160 384 152 L 384 144 400 144 L 416 144 416 136 L 416 128 424 128 L 432 128 432 120 L 432 112 440 112 L 448 112 448 96 L 448 80 432 80 L 416 80 416 88 L 416 96 408 96 L 400 96 400 104 L 400 112 392 112 L 384 112 384 120 L 384 128 368 128 L 352 128 352 112 L 352 96 344 96 L 336 96 336 88 L 336 80 328 80 L 320 80 320 72 L 320 64 312 64 L 304 64 304 56 L 304 48 256 48 L 208 48 208 56 M 208 72 L 208 80 200 80 L 192 80 192 88 L 192 96 184 96 L 176 96 176 112 L 176 128 168 128 L 160 128 160 136 L 160 144 256 144 L 352 144 352 136 L 352 128 344 128 L 336 128 336 112 L 336 96 328 96 L 320 96 320 88 L 320 80 312 80 L 304 80 304 72 L 304 64 256 64 L 208 64 208 72" stroke="none" fill="#3d2e24" fill-rule="evenodd"/><path d="M 208 56 L 208 64 200 64 L 192 64 192 72 L 192 80 184 80 L 176 80 176 88 L 176 96 168 96 L 160 96 160 112 L 160 128 144 128 L 128 128 128 120 L 128 112 120 112 L 112 112 112 104 L 112 96 104 96 L 96 96 96 88 L 96 80 80 80 L 64 80 64 96 L 64 112 72 112 L 80 112 80 120 L 80 128 88 128 L 96 128 96 136 L 96 144 104 144 L 112 144 112 152 L 112 160 248 160 L 384 160 384 152 L 384 144 400 144 L 416 144 416 136 L 416 128 424 128 L 432 128 432 120 L 432 112 440 112 L 448 112 448 96 L 448 80 432 80 L 416 80 416 88 L 416 96 408 96 L 400 96 400 104 L 400 112 392 112 L 384 112 384 120 L 384 128 368 128 L 352 128 352 112 L 352 96 344 96 L 336 96 336 88 L 336 80 328 80 L 320 80 320 72 L 320 64 312 64 L 304 64 304 56 L 304 48 256 48 L 208 48 208 56 M 208 72 L 208 80 200 80 L 192 80 192 88 L 192 96 184 96 L 176 96 176 112 L 176 128 168 128 L 160 128 160 136 L 160 144 256 144 L 352 144 352 136 L 352 128 344 128 L 336 128 336 112 L 336 96 328 96 L 320 96 320 88 L 320 80 312 80 L 304 80 304 72 L 304 64 256 64 L 208 64 208 72" stroke="none" fill="#3d2e24" fill-rule="evenodd"/><path d="M 208 72 L 208 80 200 80 L 192 80 192 88 L 192 96 184 96 L 176 96 176 112 L 176 128 256 128 L 336 128 336 112 L 336 96 328 96 L 320 96 320 88 L 320 80 312 80 L 304 80 304 72 L 304 64 256 64 L 208 64 208 72" stroke="none" fill="#47372d" fill-rule="evenodd"/><path d="M 160 136 L 160 144 256 144 L 352 144 352 136 L 352 128 256 128 L 160 128 160 136" stroke="none" fill="#614c3f" fill-rule="evenodd"/><path d="" stroke="none" fill="#644c3c" fill-rule="evenodd"/><path d="" stroke="none" fill="#44342c" fill-rule="evenodd"/></svg>