<svg xmlns="http://www.w3.org/2000/svg" width="512" height="512" viewBox="0 0 512 512" version="1.1"><path d="M 224 24 L 224 32 232 32 L 240 32 240 48 L 240 64 208 64 L 176 64 176 72 L 176 80 168 80 L 160 80 160 72 L 160 64 152 64 L 144 64 144 56 L 144 48 136 48 L 128 48 128 56 L 128 64 136 64 L 144 64 144 72 L 144 80 152 80 L 160 80 160 88 L 160 96 136 96 L 112 96 112 88 L 112 80 104 80 L 96 80 96 72 L 96 64 88 64 L 80 64 80 72 L 80 80 88 80 L 96 80 96 88 L 96 96 104 96 L 112 96 112 120 L 112 144 96 144 L 80 144 80 152 L 80 160 72 160 L 64 160 64 168 L 64 176 72 176 L 80 176 80 168 L 80 160 88 160 L 96 160 96 200 L 96 240 88 240 L 80 240 80 248 L 80 256 72 256 L 64 256 64 264 L 64 272 72 272 L 80 272 80 264 L 80 256 96 256 L 112 256 112 272 L 112 288 104 288 L 96 288 96 296 L 96 304 104 304 L 112 304 112 296 L 112 288 128 288 L 144 288 144 304 L 144 320 136 320 L 128 320 128 328 L 128 336 136 336 L 144 336 144 328 L 144 320 152 320 L 160 320 160 312 L 160 304 168 304 L 176 304 176 296 L 176 288 168 288 L 160 288 160 272 L 160 256 152 256 L 144 256 144 248 L 144 240 136 240 L 128 240 128 208 L 128 176 152 176 L 176 176 176 160 L 176 144 184 144 L 192 144 192 136 L 192 128 200 128 L 208 128 208 120 L 208 112 256 112 L 304 112 304 120 L 304 128 312 128 L 320 128 320 136 L 320 144 336 144 L 352 144 352 224 L 352 304 344 304 L 336 304 336 320 L 336 336 344 336 L 352 336 352 328 L 352 320 360 320 L 368 320 368 312 L 368 304 376 304 L 384 304 384 312 L 384 320 392 320 L 400 320 400 328 L 400 336 408 336 L 416 336 416 320 L 416 304 408 304 L 400 304 400 264 L 400 224 408 224 L 416 224 416 232 L 416 240 424 240 L 432 240 432 232 L 432 224 424 224 L 416 224 416 192 L 416 160 408 160 L 400 160 400 144 L 400 128 408 128 L 416 128 416 136 L 416 144 424 144 L 432 144 432 136 L 432 128 424 128 L 416 128 416 120 L 416 112 400 112 L 384 112 384 104 L 384 96 376 96 L 368 96 368 88 L 368 80 352 80 L 336 80 336 72 L 336 64 344 64 L 352 64 352 56 L 352 48 344 48 L 336 48 336 56 L 336 64 320 64 L 304 64 304 56 L 304 48 296 48 L 288 48 288 32 L 288 16 280 16 L 272 16 272 32 L 272 48 264 48 L 256 48 256 40 L 256 32 248 32 L 240 32 240 24 L 240 16 232 16 L 224 16 224 24 M 272 56 L 272 64 280 64 L 288 64 288 56 L 288 48 280 48 L 272 48 272 56" stroke="none" fill="#ffffff" fill-rule="evenodd"/><path d="M 224 24 L 224 32 232 32 L 240 32 240 48 L 240 64 208 64 L 176 64 176 72 L 176 80 168 80 L 160 80 160 72 L 160 64 152 64 L 144 64 144 56 L 144 48 136 48 L 128 48 128 56 L 128 64 136 64 L 144 64 144 72 L 144 80 152 80 L 160 80 160 88 L 160 96 136 96 L 112 96 112 88 L 112 80 104 80 L 96 80 96 72 L 96 64 88 64 L 80 64 80 72 L 80 80 88 80 L 96 80 96 88 L 96 96 104 96 L 112 96 112 120 L 112 144 96 144 L 80 144 80 152 L 80 160 72 160 L 64 160 64 168 L 64 176 72 176 L 80 176 80 168 L 80 160 88 160 L 96 160 96 200 L 96 240 88 240 L 80 240 80 248 L 80 256 72 256 L 64 256 64 264 L 64 272 72 272 L 80 272 80 264 L 80 256 96 256 L 112 256 112 272 L 112 288 104 288 L 96 288 96 296 L 96 304 104 304 L 112 304 112 296 L 112 288 128 288 L 144 288 144 304 L 144 320 136 320 L 128 320 128 328 L 128 336 136 336 L 144 336 144 328 L 144 320 152 320 L 160 320 160 312 L 160 304 168 304 L 176 304 176 296 L 176 288 168 288 L 160 288 160 272 L 160 256 152 256 L 144 256 144 248 L 144 240 136 240 L 128 240 128 208 L 128 176 152 176 L 176 176 176 160 L 176 144 184 144 L 192 144 192 136 L 192 128 200 128 L 208 128 208 120 L 208 112 256 112 L 304 112 304 120 L 304 128 312 128 L 320 128 320 136 L 320 144 336 144 L 352 144 352 224 L 352 304 344 304 L 336 304 336 320 L 336 336 344 336 L 352 336 352 328 L 352 320 360 320 L 368 320 368 312 L 368 304 376 304 L 384 304 384 312 L 384 320 392 320 L 400 320 400 328 L 400 336 408 336 L 416 336 416 320 L 416 304 408 304 L 400 304 400 264 L 400 224 408 224 L 416 224 416 232 L 416 240 424 240 L 432 240 432 232 L 432 224 424 224 L 416 224 416 192 L 416 160 408 160 L 400 160 400 144 L 400 128 408 128 L 416 128 416 136 L 416 144 424 144 L 432 144 432 136 L 432 128 424 128 L 416 128 416 120 L 416 112 400 112 L 384 112 384 104 L 384 96 376 96 L 368 96 368 88 L 368 80 352 80 L 336 80 336 72 L 336 64 344 64 L 352 64 352 56 L 352 48 344 48 L 336 48 336 56 L 336 64 320 64 L 304 64 304 56 L 304 48 296 48 L 288 48 288 32 L 288 16 280 16 L 272 16 272 32 L 272 48 264 48 L 256 48 256 40 L 256 32 248 32 L 240 32 240 24 L 240 16 232 16 L 224 16 224 24 M 272 56 L 272 64 280 64 L 288 64 288 56 L 288 48 280 48 L 272 48 272 56" stroke="none" fill="#ffffff" fill-rule="evenodd"/><path d="M 224 24 L 224 32 232 32 L 240 32 240 48 L 240 64 208 64 L 176 64 176 72 L 176 80 168 80 L 160 80 160 72 L 160 64 152 64 L 144 64 144 56 L 144 48 136 48 L 128 48 128 56 L 128 64 136 64 L 144 64 144 72 L 144 80 152 80 L 160 80 160 88 L 160 96 136 96 L 112 96 112 88 L 112 80 104 80 L 96 80 96 72 L 96 64 88 64 L 80 64 80 72 L 80 80 88 80 L 96 80 96 88 L 96 96 104 96 L 112 96 112 120 L 112 144 96 144 L 80 144 80 152 L 80 160 72 160 L 64 160 64 168 L 64 176 72 176 L 80 176 80 168 L 80 160 88 160 L 96 160 96 200 L 96 240 88 240 L 80 240 80 248 L 80 256 72 256 L 64 256 64 264 L 64 272 72 272 L 80 272 80 264 L 80 256 96 256 L 112 256 112 272 L 112 288 104 288 L 96 288 96 296 L 96 304 104 304 L 112 304 112 296 L 112 288 128 288 L 144 288 144 304 L 144 320 136 320 L 128 320 128 328 L 128 336 136 336 L 144 336 144 328 L 144 320 152 320 L 160 320 160 312 L 160 304 168 304 L 176 304 176 296 L 176 288 168 288 L 160 288 160 272 L 160 256 152 256 L 144 256 144 248 L 144 240 136 240 L 128 240 128 208 L 128 176 152 176 L 176 176 176 160 L 176 144 184 144 L 192 144 192 136 L 192 128 200 128 L 208 128 208 120 L 208 112 256 112 L 304 112 304 120 L 304 128 312 128 L 320 128 320 136 L 320 144 336 144 L 352 144 352 224 L 352 304 344 304 L 336 304 336 320 L 336 336 344 336 L 352 336 352 328 L 352 320 360 320 L 368 320 368 312 L 368 304 376 304 L 384 304 384 312 L 384 320 392 320 L 400 320 400 328 L 400 336 408 336 L 416 336 416 320 L 416 304 408 304 L 400 304 400 264 L 400 224 408 224 L 416 224 416 232 L 416 240 424 240 L 432 240 432 232 L 432 224 424 224 L 416 224 416 192 L 416 160 408 160 L 400 160 400 144 L 400 128 408 128 L 416 128 416 136 L 416 144 424 144 L 432 144 432 136 L 432 128 424 128 L 416 128 416 120 L 416 112 400 112 L 384 112 384 104 L 384 96 376 96 L 368 96 368 88 L 368 80 352 80 L 336 80 336 72 L 336 64 344 64 L 352 64 352 56 L 352 48 344 48 L 336 48 336 56 L 336 64 320 64 L 304 64 304 56 L 304 48 296 48 L 288 48 288 32 L 288 16 280 16 L 272 16 272 32 L 272 48 264 48 L 256 48 256 40 L 256 32 248 32 L 240 32 240 24 L 240 16 232 16 L 224 16 224 24 M 272 56 L 272 64 280 64 L 288 64 288 56 L 288 48 280 48 L 272 48 272 56" stroke="none" fill="#ffffff" fill-rule="evenodd"/><path d="M 224 24 L 224 32 232 32 L 240 32 240 48 L 240 64 208 64 L 176 64 176 72 L 176 80 168 80 L 160 80 160 72 L 160 64 152 64 L 144 64 144 56 L 144 48 136 48 L 128 48 128 56 L 128 64 136 64 L 144 64 144 72 L 144 80 152 80 L 160 80 160 88 L 160 96 136 96 L 112 96 112 88 L 112 80 104 80 L 96 80 96 72 L 96 64 88 64 L 80 64 80 72 L 80 80 88 80 L 96 80 96 88 L 96 96 104 96 L 112 96 112 120 L 112 144 96 144 L 80 144 80 152 L 80 160 72 160 L 64 160 64 168 L 64 176 72 176 L 80 176 80 168 L 80 160 88 160 L 96 160 96 200 L 96 240 88 240 L 80 240 80 248 L 80 256 72 256 L 64 256 64 264 L 64 272 72 272 L 80 272 80 264 L 80 256 96 256 L 112 256 112 272 L 112 288 104 288 L 96 288 96 296 L 96 304 104 304 L 112 304 112 296 L 112 288 128 288 L 144 288 144 304 L 144 320 136 320 L 128 320 128 328 L 128 336 136 336 L 144 336 144 328 L 144 320 152 320 L 160 320 160 312 L 160 304 168 304 L 176 304 176 296 L 176 288 168 288 L 160 288 160 272 L 160 256 152 256 L 144 256 144 248 L 144 240 136 240 L 128 240 128 208 L 128 176 152 176 L 176 176 176 160 L 176 144 184 144 L 192 144 192 136 L 192 128 200 128 L 208 128 208 120 L 208 112 256 112 L 304 112 304 120 L 304 128 312 128 L 320 128 320 136 L 320 144 336 144 L 352 144 352 224 L 352 304 344 304 L 336 304 336 320 L 336 336 344 336 L 352 336 352 328 L 352 320 360 320 L 368 320 368 312 L 368 304 376 304 L 384 304 384 312 L 384 320 392 320 L 400 320 400 328 L 400 336 408 336 L 416 336 416 320 L 416 304 408 304 L 400 304 400 264 L 400 224 408 224 L 416 224 416 232 L 416 240 424 240 L 432 240 432 232 L 432 224 424 224 L 416 224 416 192 L 416 160 408 160 L 400 160 400 144 L 400 128 408 128 L 416 128 416 136 L 416 144 424 144 L 432 144 432 136 L 432 128 424 128 L 416 128 416 120 L 416 112 400 112 L 384 112 384 104 L 384 96 376 96 L 368 96 368 88 L 368 80 352 80 L 336 80 336 72 L 336 64 344 64 L 352 64 352 56 L 352 48 344 48 L 336 48 336 56 L 336 64 320 64 L 304 64 304 56 L 304 48 296 48 L 288 48 288 32 L 288 16 280 16 L 272 16 272 32 L 272 48 264 48 L 256 48 256 40 L 256 32 248 32 L 240 32 240 24 L 240 16 232 16 L 224 16 224 24 M 272 56 L 272 64 280 64 L 288 64 288 56 L 288 48 280 48 L 272 48 272 56" stroke="none" fill="#ffffff" fill-rule="evenodd"/><path d="" stroke="none" fill="#fffcfc" fill-rule="evenodd"/><path d="" stroke="none" fill="#fcfcfc" fill-rule="evenodd"/></svg>