<svg xmlns="http://www.w3.org/2000/svg" width="512" height="512" viewBox="0 0 512 512" version="1.1"><path d="M 176 40 L 176 48 168 48 L 160 48 160 88 L 160 128 152 128 L 144 128 144 136 L 144 144 136 144 L 128 144 128 152 L 128 160 136 160 L 144 160 144 152 L 144 144 152 144 L 160 144 160 136 L 160 128 168 128 L 176 128 176 88 L 176 48 200 48 L 224 48 224 64 L 224 80 232 80 L 240 80 240 64 L 240 48 232 48 L 224 48 224 40 L 224 32 200 32 L 176 32 176 40" stroke="none" fill="#f5b65e" fill-rule="evenodd"/><path d="M 176 104 L 176 160 256 160 L 336 160 336 104 L 336 48 288 48 L 240 48 240 56 L 240 64 280 64 L 320 64 320 104 L 320 144 256 144 L 192 144 192 104 L 192 64 208 64 L 224 64 224 56 L 224 48 200 48 L 176 48 176 104" stroke="none" fill="#7b1a30" fill-rule="evenodd"/><path d="M 192 104 L 192 144 256 144 L 320 144 320 104 L 320 64 280 64 L 240 64 240 72 L 240 80 232 80 L 224 80 224 72 L 224 64 208 64 L 192 64 192 104 M 256 88 L 256 96 232 96 L 208 96 208 112 L 208 128 216 128 L 224 128 224 120 L 224 112 240 112 L 256 112 256 104 L 256 96 264 96 L 272 96 272 88 L 272 80 264 80 L 256 80 256 88" stroke="none" fill="#b32244" fill-rule="evenodd"/><path d="M 256 88 L 256 96 232 96 L 208 96 208 112 L 208 128 216 128 L 224 128 224 120 L 224 112 240 112 L 256 112 256 104 L 256 96 264 96 L 272 96 272 88 L 272 80 264 80 L 256 80 256 88" stroke="none" fill="#b51f42" fill-rule="evenodd"/><path d="M 176 40 L 176 48 168 48 L 160 48 160 88 L 160 128 152 128 L 144 128 144 136 L 144 144 136 144 L 128 144 128 152 L 128 160 136 160 L 144 160 144 152 L 144 144 152 144 L 160 144 160 136 L 160 128 168 128 L 176 128 176 88 L 176 48 200 48 L 224 48 224 64 L 224 80 232 80 L 240 80 240 64 L 240 48 232 48 L 224 48 224 40 L 224 32 200 32 L 176 32 176 40" stroke="none" fill="#f5b65e" fill-rule="evenodd"/><path d="M 176 104 L 176 160 256 160 L 336 160 336 104 L 336 48 288 48 L 240 48 240 56 L 240 64 280 64 L 320 64 320 104 L 320 144 256 144 L 192 144 192 104 L 192 64 208 64 L 224 64 224 56 L 224 48 200 48 L 176 48 176 104" stroke="none" fill="#7b1a30" fill-rule="evenodd"/><path d="M 192 104 L 192 144 256 144 L 320 144 320 104 L 320 64 280 64 L 240 64 240 72 L 240 80 232 80 L 224 80 224 72 L 224 64 208 64 L 192 64 192 104 M 256 88 L 256 96 232 96 L 208 96 208 112 L 208 128 216 128 L 224 128 224 120 L 224 112 240 112 L 256 112 256 104 L 256 96 264 96 L 272 96 272 88 L 272 80 264 80 L 256 80 256 88" stroke="none" fill="#b32244" fill-rule="evenodd"/><path d="" stroke="none" fill="#7c1c34" fill-rule="evenodd"/><path d="" stroke="none" fill="#b42244" fill-rule="evenodd"/></svg>