<svg xmlns="http://www.w3.org/2000/svg" width="512" height="512" viewBox="0 0 512 512" version="1.1"><path d="M 176 24 L 176 32 168 32 L 160 32 160 80 L 160 128 168 128 L 176 128 176 80 L 176 32 256 32 L 336 32 336 80 L 336 128 344 128 L 352 128 352 80 L 352 32 344 32 L 336 32 336 24 L 336 16 256 16 L 176 16 176 24 M 128 152 L 128 160 256 160 L 384 160 384 152 L 384 144 256 144 L 128 144 128 152" stroke="none" fill="#000000" fill-rule="evenodd"/><path d="M 128 136 L 128 144 256 144 L 384 144 384 136 L 384 128 256 128 L 128 128 128 136" stroke="none" fill="#1c1c1c" fill-rule="evenodd"/><path d="M 176 112 L 176 128 184 128 L 192 128 192 112 L 192 96 184 96 L 176 96 176 112 M 208 112 L 208 128 272 128 L 336 128 336 112 L 336 96 272 96 L 208 96 208 112" stroke="none" fill="#631a1a" fill-rule="evenodd"/><path d="M 192 112 L 192 128 200 128 L 208 128 208 112 L 208 96 200 96 L 192 96 192 112" stroke="none" fill="#cc8b00" fill-rule="evenodd"/><path d="M 176 64 L 176 96 256 96 L 336 96 336 64 L 336 32 256 32 L 176 32 176 64" stroke="none" fill="#2b2b2b" fill-rule="evenodd"/><path d="M 176 64 L 176 96 256 96 L 336 96 336 64 L 336 32 256 32 L 176 32 176 64" stroke="none" fill="#2b2b2b" fill-rule="evenodd"/><path d="" stroke="none" fill="#210f0f" fill-rule="evenodd"/><path d="" stroke="none" fill="#2c2c2c" fill-rule="evenodd"/></svg>