<svg xmlns="http://www.w3.org/2000/svg" width="512" height="512" viewBox="0 0 512 512" version="1.1"><path d="" stroke="none" fill="#704c44" fill-rule="evenodd"/><path d="M 224 296 L 224 320 232 320 L 240 320 240 328 L 240 336 248 336 L 256 336 256 344 L 256 352 280 352 L 304 352 304 336 L 304 320 312 320 L 320 320 320 296 L 320 272 272 272 L 224 272 224 296 M 240 304 L 240 320 272 320 L 304 320 304 304 L 304 288 272 288 L 240 288 240 304" stroke="none" fill="#6c4c44" fill-rule="evenodd"/></svg>