<svg xmlns="http://www.w3.org/2000/svg" width="512" height="512" viewBox="0 0 512 512" version="1.1"><path d="M 320 352 L 320 368 288 368 L 256 368 256 360 L 256 352 248 352 L 240 352 240 360 L 240 368 248 368 L 256 368 256 376 L 256 384 288 384 L 320 384 320 376 L 320 368 328 368 L 336 368 336 352 L 336 336 328 336 L 320 336 320 352" stroke="none" fill="#000000" fill-rule="evenodd"/><path d="M 176 256 L 176 288 184 288 L 192 288 192 296 L 192 304 200 304 L 208 304 208 312 L 208 320 272 320 L 336 320 336 288 L 336 256 328 256 L 320 256 320 264 L 320 272 272 272 L 224 272 224 264 L 224 256 216 256 L 208 256 208 248 L 208 240 200 240 L 192 240 192 232 L 192 224 184 224 L 176 224 176 256 M 240 296 L 240 304 272 304 L 304 304 304 296 L 304 288 272 288 L 240 288 240 296" stroke="none" fill="#505050" fill-rule="evenodd"/><path d="M 208 328 L 208 336 224 336 L 240 336 240 344 L 240 352 248 352 L 256 352 256 360 L 256 368 288 368 L 320 368 320 352 L 320 336 328 336 L 336 336 336 328 L 336 320 272 320 L 208 320 208 328" stroke="none" fill="#444444" fill-rule="evenodd"/></svg>