<svg xmlns="http://www.w3.org/2000/svg" width="512" height="512" viewBox="0 0 512 512" version="1.1"><path d="" stroke="none" fill="#704c44" fill-rule="evenodd"/><path d="M 176 256 L 176 288 184 288 L 192 288 192 296 L 192 304 200 304 L 208 304 208 320 L 208 336 224 336 L 240 336 240 328 L 240 320 232 320 L 224 320 224 296 L 224 272 216 272 L 208 272 208 256 L 208 240 200 240 L 192 240 192 232 L 192 224 184 224 L 176 224 176 256 M 320 288 L 320 320 312 320 L 304 320 304 328 L 304 336 320 336 L 336 336 336 296 L 336 256 328 256 L 320 256 320 288" stroke="none" fill="#6c4c44" fill-rule="evenodd"/></svg>