<svg xmlns="http://www.w3.org/2000/svg" width="512" height="512" viewBox="0 0 512 512" version="1.1"><path d="M 288 192 L 288 208 312 208 L 336 208 336 192 L 336 176 312 176 L 288 176 288 192" stroke="none" fill="#e14b4b" fill-rule="evenodd"/><path d="M 208 192 L 208 208 232 208 L 256 208 256 192 L 256 176 232 176 L 208 176 208 192" stroke="none" fill="#4c8cfc" fill-rule="evenodd"/><path d="M 144 168 L 144 176 168 176 L 192 176 192 192 L 192 208 200 208 L 208 208 208 216 L 208 224 232 224 L 256 224 256 216 L 256 208 272 208 L 288 208 288 216 L 288 224 312 224 L 336 224 336 216 L 336 208 344 208 L 352 208 352 184 L 352 160 248 160 L 144 160 144 168 M 208 192 L 208 208 232 208 L 256 208 256 192 L 256 176 232 176 L 208 176 208 192 M 288 192 L 288 208 312 208 L 336 208 336 192 L 336 176 312 176 L 288 176 288 192" stroke="none" fill="#fcfcfc" fill-rule="evenodd"/></svg>