<svg xmlns="http://www.w3.org/2000/svg" width="512" height="512" viewBox="0 0 512 512" version="1.1"><path d="" stroke="none" fill="#d02424" fill-rule="evenodd"/><path d="M 368 120 L 368 128 352 128 L 336 128 336 136 L 336 144 312 144 L 288 144 288 152 L 288 160 272 160 L 256 160 256 168 L 256 176 240 176 L 224 176 224 192 L 224 208 232 208 L 240 208 240 200 L 240 192 248 192 L 256 192 256 184 L 256 176 272 176 L 288 176 288 168 L 288 160 312 160 L 336 160 336 152 L 336 144 352 144 L 368 144 368 136 L 368 128 384 128 L 400 128 400 120 L 400 112 384 112 L 368 112 368 120 M 448 120 L 448 128 432 128 L 416 128 416 136 L 416 144 400 144 L 384 144 384 152 L 384 160 368 160 L 352 160 352 168 L 352 176 336 176 L 320 176 320 192 L 320 208 328 208 L 336 208 336 200 L 336 192 344 192 L 352 192 352 184 L 352 176 368 176 L 384 176 384 168 L 384 160 400 160 L 416 160 416 152 L 416 144 432 144 L 448 144 448 136 L 448 128 464 128 L 480 128 480 120 L 480 112 464 112 L 448 112 448 120" stroke="none" fill="#cc2424" fill-rule="evenodd"/></svg>