<svg xmlns="http://www.w3.org/2000/svg" width="512" height="512" viewBox="0 0 512 512" version="1.1"><path d="M 192 168 L 192 176 176 176 L 160 176 160 184 L 160 192 176 192 L 192 192 192 208 L 192 224 224 224 L 256 224 256 208 L 256 192 272 192 L 288 192 288 208 L 288 224 320 224 L 352 224 352 208 L 352 192 360 192 L 368 192 368 184 L 368 176 360 176 L 352 176 352 168 L 352 160 320 160 L 288 160 288 168 L 288 176 272 176 L 256 176 256 168 L 256 160 224 160 L 192 160 192 168 M 208 192 L 208 208 224 208 L 240 208 240 192 L 240 176 224 176 L 208 176 208 192 M 304 192 L 304 208 320 208 L 336 208 336 192 L 336 176 320 176 L 304 176 304 192" stroke="none" fill="#040404" fill-rule="evenodd"/><path d="M 208 192 L 208 208 224 208 L 240 208 240 192 L 240 176 224 176 L 208 176 208 192 M 304 192 L 304 208 320 208 L 336 208 336 192 L 336 176 320 176 L 304 176 304 192" stroke="none" fill="#1c749c" fill-rule="evenodd"/></svg>