<svg xmlns="http://www.w3.org/2000/svg" width="512" height="512" viewBox="0 0 512 512" version="1.1"><path d="M 176 424 L 176 432 160 432 L 144 432 144 440 L 144 448 152 448 L 160 448 160 480 L 160 512 192 512 L 224 512 224 504 L 224 496 232 496 L 240 496 240 488 L 240 480 248 480 L 256 480 256 472 L 256 464 264 464 L 272 464 272 456 L 272 448 264 448 L 256 448 256 456 L 256 464 248 464 L 240 464 240 472 L 240 480 232 480 L 224 480 224 488 L 224 496 208 496 L 192 496 192 480 L 192 464 184 464 L 176 464 176 448 L 176 432 184 432 L 192 432 192 424 L 192 416 184 416 L 176 416 176 424 M 320 432 L 320 448 304 448 L 288 448 288 464 L 288 480 280 480 L 272 480 272 496 L 272 512 280 512 L 288 512 288 496 L 288 480 296 480 L 304 480 304 472 L 304 464 320 464 L 336 464 336 472 L 336 480 344 480 L 352 480 352 488 L 352 496 368 496 L 384 496 384 488 L 384 480 376 480 L 368 480 368 472 L 368 464 352 464 L 336 464 336 440 L 336 416 328 416 L 320 416 320 432 M 112 456 L 112 464 96 464 L 80 464 80 480 L 80 496 72 496 L 64 496 64 504 L 64 512 80 512 L 96 512 96 496 L 96 480 104 480 L 112 480 112 472 L 112 464 120 464 L 128 464 128 456 L 128 448 120 448 L 112 448 112 456" stroke="none" fill="#a20a15" fill-rule="evenodd"/><path d="M 176 424 L 176 432 160 432 L 144 432 144 440 L 144 448 152 448 L 160 448 160 480 L 160 512 192 512 L 224 512 224 504 L 224 496 232 496 L 240 496 240 488 L 240 480 248 480 L 256 480 256 472 L 256 464 264 464 L 272 464 272 456 L 272 448 264 448 L 256 448 256 456 L 256 464 248 464 L 240 464 240 472 L 240 480 232 480 L 224 480 224 488 L 224 496 208 496 L 192 496 192 480 L 192 464 184 464 L 176 464 176 448 L 176 432 184 432 L 192 432 192 424 L 192 416 184 416 L 176 416 176 424 M 320 432 L 320 448 304 448 L 288 448 288 464 L 288 480 280 480 L 272 480 272 496 L 272 512 280 512 L 288 512 288 496 L 288 480 296 480 L 304 480 304 472 L 304 464 320 464 L 336 464 336 472 L 336 480 344 480 L 352 480 352 488 L 352 496 368 496 L 384 496 384 488 L 384 480 376 480 L 368 480 368 472 L 368 464 352 464 L 336 464 336 440 L 336 416 328 416 L 320 416 320 432 M 112 456 L 112 464 96 464 L 80 464 80 480 L 80 496 72 496 L 64 496 64 504 L 64 512 80 512 L 96 512 96 496 L 96 480 104 480 L 112 480 112 472 L 112 464 120 464 L 128 464 128 456 L 128 448 120 448 L 112 448 112 456" stroke="none" fill="#a20a15" fill-rule="evenodd"/><path d="M 144 472 L 144 496 128 496 L 112 496 112 488 L 112 480 104 480 L 96 480 96 496 L 96 512 128 512 L 160 512 160 480 L 160 448 152 448 L 144 448 144 472 M 304 472 L 304 480 296 480 L 288 480 288 496 L 288 512 344 512 L 400 512 400 504 L 400 496 376 496 L 352 496 352 488 L 352 480 344 480 L 336 480 336 472 L 336 464 320 464 L 304 464 304 472 M 192 488 L 192 496 200 496 L 208 496 208 488 L 208 480 200 480 L 192 480 192 488 M 240 488 L 240 496 232 496 L 224 496 224 504 L 224 512 248 512 L 272 512 272 504 L 272 496 264 496 L 256 496 256 488 L 256 480 248 480 L 240 480 240 488" stroke="none" fill="#d99b01" fill-rule="evenodd"/><path d="M 160 392 L 160 400 144 400 L 128 400 128 408 L 128 416 112 416 L 96 416 96 424 L 96 432 88 432 L 80 432 80 440 L 80 448 72 448 L 64 448 64 456 L 64 464 56 464 L 48 464 48 472 L 48 480 40 480 L 32 480 32 496 L 32 512 48 512 L 64 512 64 504 L 64 496 72 496 L 80 496 80 480 L 80 464 96 464 L 112 464 112 480 L 112 496 128 496 L 144 496 144 464 L 144 432 160 432 L 176 432 176 448 L 176 464 184 464 L 192 464 192 472 L 192 480 200 480 L 208 480 208 488 L 208 496 216 496 L 224 496 224 488 L 224 480 232 480 L 240 480 240 472 L 240 464 248 464 L 256 464 256 480 L 256 496 264 496 L 272 496 272 488 L 272 480 280 480 L 288 480 288 464 L 288 448 304 448 L 320 448 320 432 L 320 416 328 416 L 336 416 336 440 L 336 464 352 464 L 368 464 368 472 L 368 480 376 480 L 384 480 384 488 L 384 496 392 496 L 400 496 400 504 L 400 512 416 512 L 432 512 432 504 L 432 496 424 496 L 416 496 416 488 L 416 480 408 480 L 400 480 400 472 L 400 464 392 464 L 384 464 384 456 L 384 448 376 448 L 368 448 368 440 L 368 432 360 432 L 352 432 352 424 L 352 416 344 416 L 336 416 336 408 L 336 400 304 400 L 272 400 272 416 L 272 432 248 432 L 224 432 224 424 L 224 416 216 416 L 208 416 208 408 L 208 400 192 400 L 176 400 176 392 L 176 384 168 384 L 160 384 160 392 M 176 424 L 176 432 184 432 L 192 432 192 424 L 192 416 184 416 L 176 416 176 424 M 112 456 L 112 464 120 464 L 128 464 128 456 L 128 448 120 448 L 112 448 112 456 M 256 456 L 256 464 264 464 L 272 464 272 456 L 272 448 264 448 L 256 448 256 456" stroke="none" fill="#000000" fill-rule="evenodd"/><path d="" stroke="none" fill="#040404" fill-rule="evenodd"/><path d="" stroke="none" fill="#bc4b0c" fill-rule="evenodd"/></svg>