<svg xmlns="http://www.w3.org/2000/svg" width="512" height="512" viewBox="0 0 512 512" version="1.1"><path d="M 128 440 L 128 464 136 464 L 144 464 144 472 L 144 480 152 480 L 160 480 160 488 L 160 496 240 496 L 320 496 320 488 L 320 480 328 480 L 336 480 336 472 L 336 464 344 464 L 352 464 352 448 L 352 432 344 432 L 336 432 336 440 L 336 448 328 448 L 320 448 320 456 L 320 464 312 464 L 304 464 304 472 L 304 480 240 480 L 176 480 176 472 L 176 464 168 464 L 160 464 160 456 L 160 448 152 448 L 144 448 144 432 L 144 416 136 416 L 128 416 128 440 M 48 496 L 48 512 56 512 L 64 512 64 496 L 64 480 56 480 L 48 480 48 496 M 384 488 L 384 496 376 496 L 368 496 368 504 L 368 512 392 512 L 416 512 416 504 L 416 496 408 496 L 400 496 400 488 L 400 480 392 480 L 384 480 384 488" stroke="none" fill="#00fb29" fill-rule="evenodd"/><path d="M 144 432 L 144 448 152 448 L 160 448 160 456 L 160 464 168 464 L 176 464 176 472 L 176 480 240 480 L 304 480 304 472 L 304 464 312 464 L 320 464 320 456 L 320 448 328 448 L 336 448 336 432 L 336 416 328 416 L 320 416 320 424 L 320 432 312 432 L 304 432 304 440 L 304 448 296 448 L 288 448 288 456 L 288 464 240 464 L 192 464 192 456 L 192 448 184 448 L 176 448 176 440 L 176 432 168 432 L 160 432 160 424 L 160 416 152 416 L 144 416 144 432 M 64 488 L 64 512 72 512 L 80 512 80 488 L 80 464 72 464 L 64 464 64 488" stroke="none" fill="#f7ee00" fill-rule="evenodd"/><path d="M 80 488 L 80 512 96 512 L 112 512 112 504 L 112 496 104 496 L 96 496 96 480 L 96 464 88 464 L 80 464 80 488" stroke="none" fill="#1ec1b0" fill-rule="evenodd"/><path d="M 160 416 L 160 432 168 432 L 176 432 176 440 L 176 448 184 448 L 192 448 192 456 L 192 464 240 464 L 288 464 288 456 L 288 448 296 448 L 304 448 304 440 L 304 432 312 432 L 320 432 320 424 L 320 416 304 416 L 288 416 288 424 L 288 432 280 432 L 272 432 272 440 L 272 448 240 448 L 208 448 208 440 L 208 432 200 432 L 192 432 192 424 L 192 416 184 416 L 176 416 176 408 L 176 400 168 400 L 160 400 160 416 M 96 472 L 96 496 104 496 L 112 496 112 504 L 112 512 128 512 L 144 512 144 504 L 144 496 136 496 L 128 496 128 488 L 128 480 120 480 L 112 480 112 464 L 112 448 104 448 L 96 448 96 472 M 368 472 L 368 480 360 480 L 352 480 352 488 L 352 496 344 496 L 336 496 336 504 L 336 512 352 512 L 368 512 368 504 L 368 496 376 496 L 384 496 384 480 L 384 464 376 464 L 368 464 368 472" stroke="none" fill="#d8006b" fill-rule="evenodd"/><path d="M 128 440 L 128 464 136 464 L 144 464 144 472 L 144 480 152 480 L 160 480 160 488 L 160 496 240 496 L 320 496 320 488 L 320 480 328 480 L 336 480 336 472 L 336 464 344 464 L 352 464 352 448 L 352 432 344 432 L 336 432 336 440 L 336 448 328 448 L 320 448 320 456 L 320 464 312 464 L 304 464 304 472 L 304 480 240 480 L 176 480 176 472 L 176 464 168 464 L 160 464 160 456 L 160 448 152 448 L 144 448 144 432 L 144 416 136 416 L 128 416 128 440 M 48 496 L 48 512 56 512 L 64 512 64 496 L 64 480 56 480 L 48 480 48 496 M 384 488 L 384 496 376 496 L 368 496 368 504 L 368 512 392 512 L 416 512 416 504 L 416 496 408 496 L 400 496 400 488 L 400 480 392 480 L 384 480 384 488" stroke="none" fill="#00fb29" fill-rule="evenodd"/><path d="M 160 416 L 160 432 168 432 L 176 432 176 440 L 176 448 184 448 L 192 448 192 456 L 192 464 240 464 L 288 464 288 456 L 288 448 296 448 L 304 448 304 440 L 304 432 312 432 L 320 432 320 424 L 320 416 304 416 L 288 416 288 424 L 288 432 280 432 L 272 432 272 440 L 272 448 240 448 L 208 448 208 440 L 208 432 200 432 L 192 432 192 424 L 192 416 184 416 L 176 416 176 408 L 176 400 168 400 L 160 400 160 416 M 96 472 L 96 496 104 496 L 112 496 112 504 L 112 512 128 512 L 144 512 144 504 L 144 496 136 496 L 128 496 128 488 L 128 480 120 480 L 112 480 112 464 L 112 448 104 448 L 96 448 96 472 M 368 472 L 368 480 360 480 L 352 480 352 488 L 352 496 344 496 L 336 496 336 504 L 336 512 352 512 L 368 512 368 504 L 368 496 376 496 L 384 496 384 480 L 384 464 376 464 L 368 464 368 472" stroke="none" fill="#d8006b" fill-rule="evenodd"/><path d="M 112 456 L 112 480 120 480 L 128 480 128 488 L 128 496 136 496 L 144 496 144 504 L 144 512 240 512 L 336 512 336 504 L 336 496 344 496 L 352 496 352 488 L 352 480 360 480 L 368 480 368 464 L 368 448 360 448 L 352 448 352 456 L 352 464 344 464 L 336 464 336 472 L 336 480 328 480 L 320 480 320 488 L 320 496 240 496 L 160 496 160 488 L 160 480 152 480 L 144 480 144 472 L 144 464 136 464 L 128 464 128 448 L 128 432 120 432 L 112 432 112 456" stroke="none" fill="#ff6600" fill-rule="evenodd"/><path d="M 128 440 L 128 464 136 464 L 144 464 144 472 L 144 480 152 480 L 160 480 160 488 L 160 496 240 496 L 320 496 320 488 L 320 480 328 480 L 336 480 336 472 L 336 464 344 464 L 352 464 352 448 L 352 432 344 432 L 336 432 336 440 L 336 448 328 448 L 320 448 320 456 L 320 464 312 464 L 304 464 304 472 L 304 480 240 480 L 176 480 176 472 L 176 464 168 464 L 160 464 160 456 L 160 448 152 448 L 144 448 144 432 L 144 416 136 416 L 128 416 128 440 M 48 496 L 48 512 56 512 L 64 512 64 496 L 64 480 56 480 L 48 480 48 496 M 384 488 L 384 496 376 496 L 368 496 368 504 L 368 512 392 512 L 416 512 416 504 L 416 496 408 496 L 400 496 400 488 L 400 480 392 480 L 384 480 384 488" stroke="none" fill="#00fb29" fill-rule="evenodd"/><path d="M 144 432 L 144 448 152 448 L 160 448 160 456 L 160 464 168 464 L 176 464 176 472 L 176 480 240 480 L 304 480 304 472 L 304 464 312 464 L 320 464 320 456 L 320 448 328 448 L 336 448 336 432 L 336 416 328 416 L 320 416 320 424 L 320 432 312 432 L 304 432 304 440 L 304 448 296 448 L 288 448 288 456 L 288 464 240 464 L 192 464 192 456 L 192 448 184 448 L 176 448 176 440 L 176 432 168 432 L 160 432 160 424 L 160 416 152 416 L 144 416 144 432 M 64 488 L 64 512 72 512 L 80 512 80 488 L 80 464 72 464 L 64 464 64 488" stroke="none" fill="#f7ee00" fill-rule="evenodd"/><path d="M 160 416 L 160 432 168 432 L 176 432 176 440 L 176 448 184 448 L 192 448 192 456 L 192 464 240 464 L 288 464 288 456 L 288 448 296 448 L 304 448 304 440 L 304 432 312 432 L 320 432 320 424 L 320 416 304 416 L 288 416 288 424 L 288 432 280 432 L 272 432 272 440 L 272 448 240 448 L 208 448 208 440 L 208 432 200 432 L 192 432 192 424 L 192 416 184 416 L 176 416 176 408 L 176 400 168 400 L 160 400 160 416 M 96 472 L 96 496 104 496 L 112 496 112 504 L 112 512 128 512 L 144 512 144 504 L 144 496 136 496 L 128 496 128 488 L 128 480 120 480 L 112 480 112 464 L 112 448 104 448 L 96 448 96 472 M 368 472 L 368 480 360 480 L 352 480 352 488 L 352 496 344 496 L 336 496 336 504 L 336 512 352 512 L 368 512 368 504 L 368 496 376 496 L 384 496 384 480 L 384 464 376 464 L 368 464 368 472" stroke="none" fill="#d8006b" fill-rule="evenodd"/><path d="M 160 416 L 160 432 168 432 L 176 432 176 440 L 176 448 184 448 L 192 448 192 456 L 192 464 240 464 L 288 464 288 456 L 288 448 296 448 L 304 448 304 440 L 304 432 312 432 L 320 432 320 424 L 320 416 304 416 L 288 416 288 424 L 288 432 280 432 L 272 432 272 440 L 272 448 240 448 L 208 448 208 440 L 208 432 200 432 L 192 432 192 424 L 192 416 184 416 L 176 416 176 408 L 176 400 168 400 L 160 400 160 416 M 96 472 L 96 496 104 496 L 112 496 112 504 L 112 512 128 512 L 144 512 144 504 L 144 496 136 496 L 128 496 128 488 L 128 480 120 480 L 112 480 112 464 L 112 448 104 448 L 96 448 96 472 M 368 472 L 368 480 360 480 L 352 480 352 488 L 352 496 344 496 L 336 496 336 504 L 336 512 352 512 L 368 512 368 504 L 368 496 376 496 L 384 496 384 480 L 384 464 376 464 L 368 464 368 472" stroke="none" fill="#d8006b" fill-rule="evenodd"/><path d="M 160 392 L 160 400 144 400 L 128 400 128 408 L 128 416 112 416 L 96 416 96 424 L 96 432 88 432 L 80 432 80 440 L 80 448 72 448 L 64 448 64 456 L 64 464 56 464 L 48 464 48 472 L 48 480 40 480 L 32 480 32 496 L 32 512 40 512 L 48 512 48 496 L 48 480 56 480 L 64 480 64 472 L 64 464 80 464 L 96 464 96 456 L 96 448 104 448 L 112 448 112 440 L 112 432 120 432 L 128 432 128 424 L 128 416 144 416 L 160 416 160 408 L 160 400 168 400 L 176 400 176 408 L 176 416 184 416 L 192 416 192 424 L 192 432 200 432 L 208 432 208 440 L 208 448 240 448 L 272 448 272 440 L 272 432 280 432 L 288 432 288 424 L 288 416 312 416 L 336 416 336 424 L 336 432 344 432 L 352 432 352 440 L 352 448 360 448 L 368 448 368 456 L 368 464 376 464 L 384 464 384 472 L 384 480 392 480 L 400 480 400 488 L 400 496 408 496 L 416 496 416 504 L 416 512 424 512 L 432 512 432 504 L 432 496 424 496 L 416 496 416 488 L 416 480 408 480 L 400 480 400 472 L 400 464 392 464 L 384 464 384 456 L 384 448 376 448 L 368 448 368 440 L 368 432 360 432 L 352 432 352 424 L 352 416 344 416 L 336 416 336 408 L 336 400 304 400 L 272 400 272 416 L 272 432 248 432 L 224 432 224 424 L 224 416 216 416 L 208 416 208 408 L 208 400 192 400 L 176 400 176 392 L 176 384 168 384 L 160 384 160 392" stroke="none" fill="#000000" fill-rule="evenodd"/><path d="" stroke="none" fill="#eb313b" fill-rule="evenodd"/><path d="" stroke="none" fill="#057c20" fill-rule="evenodd"/></svg>