<svg xmlns="http://www.w3.org/2000/svg" width="512" height="512" viewBox="0 0 512 512" version="1.1"><path d="M 160 392 L 160 400 144 400 L 128 400 128 408 L 128 416 112 416 L 96 416 96 424 L 96 432 88 432 L 80 432 80 440 L 80 448 72 448 L 64 448 64 456 L 64 464 56 464 L 48 464 48 472 L 48 480 40 480 L 32 480 32 496 L 32 512 40 512 L 48 512 48 496 L 48 480 56 480 L 64 480 64 472 L 64 464 72 464 L 80 464 80 456 L 80 448 88 448 L 96 448 96 440 L 96 432 112 432 L 128 432 128 424 L 128 416 144 416 L 160 416 160 408 L 160 400 168 400 L 176 400 176 392 L 176 384 168 384 L 160 384 160 392 M 192 408 L 192 416 200 416 L 208 416 208 424 L 208 432 216 432 L 224 432 224 440 L 224 448 248 448 L 272 448 272 440 L 272 432 280 432 L 288 432 288 424 L 288 416 312 416 L 336 416 336 424 L 336 432 344 432 L 352 432 352 440 L 352 448 360 448 L 368 448 368 456 L 368 464 376 464 L 384 464 384 472 L 384 480 392 480 L 400 480 400 488 L 400 496 408 496 L 416 496 416 504 L 416 512 424 512 L 432 512 432 504 L 432 496 424 496 L 416 496 416 488 L 416 480 408 480 L 400 480 400 472 L 400 464 392 464 L 384 464 384 456 L 384 448 376 448 L 368 448 368 440 L 368 432 360 432 L 352 432 352 424 L 352 416 344 416 L 336 416 336 408 L 336 400 304 400 L 272 400 272 416 L 272 432 248 432 L 224 432 224 424 L 224 416 216 416 L 208 416 208 408 L 208 400 200 400 L 192 400 192 408" stroke="none" fill="#000000" fill-rule="evenodd"/><path d="M 160 408 L 160 416 144 416 L 128 416 128 424 L 128 432 112 432 L 96 432 96 440 L 96 448 88 448 L 80 448 80 456 L 80 464 224 464 L 368 464 368 456 L 368 448 360 448 L 352 448 352 440 L 352 432 344 432 L 336 432 336 424 L 336 416 312 416 L 288 416 288 424 L 288 432 280 432 L 272 432 272 440 L 272 448 248 448 L 224 448 224 440 L 224 432 216 432 L 208 432 208 424 L 208 416 200 416 L 192 416 192 408 L 192 400 176 400 L 160 400 160 408 M 48 504 L 48 512 232 512 L 416 512 416 504 L 416 496 232 496 L 48 496 48 504" stroke="none" fill="#511a51" fill-rule="evenodd"/><path d="M 48 488 L 48 496 224 496 L 400 496 400 488 L 400 480 224 480 L 48 480 48 488" stroke="none" fill="#dd0046" fill-rule="evenodd"/><path d="M 64 472 L 64 480 224 480 L 384 480 384 472 L 384 464 224 464 L 64 464 64 472" stroke="none" fill="#028f98" fill-rule="evenodd"/><path d="M 160 408 L 160 416 144 416 L 128 416 128 424 L 128 432 112 432 L 96 432 96 440 L 96 448 88 448 L 80 448 80 456 L 80 464 224 464 L 368 464 368 456 L 368 448 360 448 L 352 448 352 440 L 352 432 344 432 L 336 432 336 424 L 336 416 312 416 L 288 416 288 424 L 288 432 280 432 L 272 432 272 440 L 272 448 248 448 L 224 448 224 440 L 224 432 216 432 L 208 432 208 424 L 208 416 200 416 L 192 416 192 408 L 192 400 176 400 L 160 400 160 408 M 48 504 L 48 512 232 512 L 416 512 416 504 L 416 496 232 496 L 48 496 48 504" stroke="none" fill="#511a51" fill-rule="evenodd"/><path d="" stroke="none" fill="#dc0444" fill-rule="evenodd"/><path d="" stroke="none" fill="#403665" fill-rule="evenodd"/></svg>